<svg width="27" height="22" viewBox="0 0 27 22" fill="none" xmlns="http://www.w3.org/2000/svg">
<g id="Iconsax/Outline/like1">
<path id="Vector" d="M17.6957 19.6978H13.5652C12.9565 19.6978 11.6305 19.5463 10.9239 18.967L7.63046 16.8813L8.63046 15.8207L12 17.9598C12.2718 18.1737 12.9565 18.352 13.5652 18.352H17.6957C18.6739 18.352 19.7283 17.7102 19.9457 16.9883L22.5761 10.4372C22.75 10.045 22.7174 9.68848 22.4892 9.43001C22.25 9.1537 21.8152 8.99327 21.2826 8.99327H16.9348C16.3696 8.99327 15.8478 8.79718 15.4892 8.45848C15.1196 8.11088 14.9565 7.6474 15.0435 7.16609L15.587 4.30501C15.7174 3.80588 15.3044 3.24435 14.7174 3.08392C14.1848 2.92348 13.5 3.15522 13.2609 3.44044L8.80437 8.8774L7.45654 8.13761L11.9131 2.70066C12.5978 1.86283 14.0978 1.46175 15.2718 1.82718C16.6305 2.19262 17.5 3.42261 17.1957 4.56348L16.6631 7.37109C16.6522 7.43348 16.6522 7.52262 16.7283 7.59392C16.7826 7.63848 16.8587 7.66522 16.9457 7.66522H21.2935C22.3587 7.66522 23.2826 8.03066 23.8261 8.66348C24.3587 9.27848 24.4674 10.0896 24.1196 10.8739L21.5218 17.3626C21.1196 18.655 19.4457 19.6978 17.6957 19.6978Z" fill="black"/>
<path id="Vector_2" d="M5.84782 18.7156H4.76086C2.74999 18.7156 1.77173 17.9402 1.77173 16.3537V7.61887C1.77173 6.03235 2.74999 5.25691 4.76086 5.25691H5.84782C7.85869 5.25691 8.83695 6.03235 8.83695 7.61887V16.3537C8.83695 17.9402 7.85869 18.7156 5.84782 18.7156ZM4.76086 6.59387C3.57608 6.59387 3.40216 6.82561 3.40216 7.61887V16.3537C3.40216 17.1469 3.57608 17.3787 4.76086 17.3787H5.84782C7.0326 17.3787 7.20651 17.1469 7.20651 16.3537V7.61887C7.20651 6.82561 7.0326 6.59387 5.84782 6.59387H4.76086Z" fill="black"/>
</g>
</svg>
